<svg width="24" height="24" viewBox="0 0 24 24" fill="none" xmlns="http://www.w3.org/2000/svg">
<path d="M19.1625 6.99943C19.1625 5.95876 18.5925 5.03682 17.73 4.49902C17.2125 4.17076 16.59 3.98218 15.9225 3.98218H15.12V5.81907C15.12 6.20321 14.79 6.51751 14.37 6.51751C13.9575 6.51751 13.62 6.20321 13.62 5.81907V3.98218H7.0425V5.81907C7.0425 6.20321 6.705 6.51751 6.2925 6.51751C5.8725 6.51751 5.5425 6.20321 5.5425 5.81907V3.98218H4.74C3.8475 3.98218 3.0375 4.31743 2.4525 4.86919C1.86 5.41397 1.5 6.16829 1.5 6.99943V7.4604H19.1625V6.99943ZM4.74 19.2989H11.4825C10.8918 18.3505 10.5812 17.2733 10.5825 16.1769C10.5825 12.7266 13.59 9.92588 17.2875 9.92588C17.94 9.92588 18.57 10.0097 19.1625 10.1703V8.85727H1.5V16.2886C1.5 17.9509 2.955 19.2989 4.74 19.2989Z" fill="#F5F5F5"/>
<path d="M7.04248 3.54927C7.04248 3.16513 6.70498 2.85083 6.29248 2.85083C5.87248 2.85083 5.54248 3.16513 5.54248 3.54927V3.9823H7.04248V3.54927ZM15.12 3.54927C15.12 3.16513 14.79 2.85083 14.37 2.85083C13.9575 2.85083 13.62 3.16513 13.62 3.54927V3.9823H15.12V3.54927ZM17.2875 11.3229C14.415 11.3229 12.0825 13.502 12.0825 16.177C12.0825 18.852 14.415 21.0242 17.2875 21.0242C20.16 21.0242 22.5 18.852 22.5 16.177C22.5 13.502 20.16 11.3229 17.2875 11.3229ZM18.765 16.8755H17.2875C16.875 16.8755 16.5375 16.5612 16.5375 16.177V14.7382C16.5375 14.3541 16.875 14.0398 17.2875 14.0398C17.7075 14.0398 18.0375 14.3541 18.0375 14.7382V15.4786H18.765C19.1775 15.4786 19.515 15.7859 19.515 16.177C19.515 16.5612 19.1775 16.8755 18.765 16.8755Z" fill="#F5F5F5"/>
</svg>
