<svg width="100" height="100" viewBox="0 0 100 100" fill="none" xmlns="http://www.w3.org/2000/svg">
<g id="svgexport-17 - 2023-09-09T155332.575 1">
<g id="Group">
<path id="Vector" d="M24.6094 63.7798C23.5587 63.7798 22.5315 64.0914 21.6579 64.6751C20.7843 65.2588 20.1034 66.0885 19.7013 67.0593C19.2992 68.03 19.194 69.0982 19.399 70.1287C19.6039 71.1592 20.1099 72.1058 20.8529 72.8488C21.5958 73.5918 22.5424 74.0977 23.573 74.3027C24.6035 74.5077 25.6717 74.4025 26.6424 74.0004C27.6131 73.5983 28.4428 72.9174 29.0266 72.0438C29.6103 71.1701 29.9219 70.143 29.9219 69.0923C29.9202 67.6838 29.36 66.3335 28.3641 65.3376C27.3681 64.3417 26.0178 63.7814 24.6094 63.7798ZM24.6094 71.6704C24.0995 71.6704 23.601 71.5192 23.177 71.2359C22.7531 70.9526 22.4226 70.55 22.2275 70.0789C22.0324 69.6078 21.9813 69.0894 22.0808 68.5893C22.1803 68.0892 22.4258 67.6298 22.7864 67.2693C23.1469 66.9087 23.6063 66.6632 24.1064 66.5637C24.6065 66.4642 25.1249 66.5153 25.596 66.7104C26.0671 66.9055 26.4697 67.236 26.753 67.66C27.0363 68.0839 27.1875 68.5824 27.1875 69.0923C27.1873 69.7759 26.9156 70.4315 26.4321 70.9148C25.9486 71.3981 25.293 71.6704 24.6094 71.6704ZM75.3906 63.7798C74.3399 63.7798 73.3128 64.0914 72.4392 64.6751C71.5655 65.2588 70.8846 66.0885 70.4825 67.0593C70.0804 68.03 69.9752 69.0982 70.1802 70.1287C70.3852 71.1592 70.8912 72.1058 71.6341 72.8488C72.3771 73.5918 73.3237 74.0977 74.3542 74.3027C75.3847 74.5077 76.4529 74.4025 77.4236 74.0004C78.3944 73.5983 79.2241 72.9174 79.8078 72.0438C80.3916 71.1701 80.7031 70.143 80.7031 69.0923C80.7015 67.6838 80.1412 66.3335 79.1453 65.3376C78.1494 64.3417 76.7991 63.7814 75.3906 63.7798ZM75.3906 71.6704C74.8807 71.6704 74.3823 71.5192 73.9583 71.2359C73.5343 70.9526 73.2039 70.55 73.0087 70.0789C72.8136 69.6078 72.7626 69.0894 72.862 68.5893C72.9615 68.0892 73.2071 67.6298 73.5676 67.2693C73.9282 66.9087 74.3876 66.6632 74.8877 66.5637C75.3878 66.4642 75.9061 66.5153 76.3772 66.7104C76.8483 66.9055 77.251 67.236 77.5343 67.66C77.8176 68.0839 77.9688 68.5824 77.9688 69.0923C77.9685 69.7759 77.6968 70.4315 77.2134 70.9148C76.7299 71.3981 76.0743 71.6704 75.3906 71.6704Z" fill="#30373F"/>
<path id="Vector_2" d="M96.2312 49.282C96.2217 49.2422 96.2103 49.2028 96.1968 49.1641C96.0604 48.6185 95.8638 48.0897 95.6108 47.5875L87.4218 31.5117C86.9826 30.6432 86.3107 29.9139 85.481 29.4053C84.6513 28.8966 83.6965 28.6286 82.7234 28.6312H59.6632C59.3006 28.6312 58.9528 28.7753 58.6964 29.0317C58.44 29.2881 58.296 29.6358 58.296 29.9984V51.25H56.2351V36.8992C56.2351 36.5366 56.091 36.1889 55.8346 35.9325C55.5782 35.6761 55.2305 35.532 54.8679 35.532H44.946V21.1836C44.9461 21.004 44.9108 20.8262 44.8421 20.6603C44.7735 20.4944 44.6728 20.3436 44.5458 20.2166C44.4188 20.0896 44.2681 19.9889 44.1021 19.9203C43.9362 19.8516 43.7584 19.8163 43.5788 19.8164H21.0085C20.8289 19.8163 20.6511 19.8516 20.4852 19.9203C20.3193 19.9889 20.1685 20.0896 20.0415 20.2166C19.9145 20.3436 19.8138 20.4944 19.7452 20.6603C19.6765 20.8262 19.6412 21.004 19.6413 21.1836V35.532H9.71943C9.3569 35.5322 9.00927 35.6763 8.75291 35.9327C8.49656 36.1891 8.35245 36.5367 8.35225 36.8992V51.25H4.92725C4.74768 51.2499 4.56985 51.2852 4.40392 51.3539C4.238 51.4225 4.08725 51.5232 3.96027 51.6502C3.83329 51.7772 3.73259 51.9279 3.66392 52.0939C3.59525 52.2598 3.55996 52.4376 3.56006 52.6172V59.3672C3.55996 59.5468 3.59525 59.7246 3.66392 59.8905C3.73259 60.0564 3.83329 60.2072 3.96027 60.3342C4.08725 60.4611 4.238 60.5618 4.40392 60.6305C4.56985 60.6992 4.74768 60.7345 4.92725 60.7344H8.8999L13.5366 69.468C13.6293 72.2555 14.7698 74.9055 16.7304 76.8891C18.691 78.8727 21.3275 80.044 24.1138 80.1691C26.9 80.2943 29.6309 79.3641 31.7615 77.5643C33.892 75.7644 35.2655 73.2273 35.6077 70.4594H42.3054V71.7563C42.306 72.5331 42.6147 73.2779 43.1638 73.8274C43.7128 74.377 44.4575 74.6863 45.2343 74.6875H58.1007C58.8774 74.6865 59.6219 74.3775 60.1711 73.8283C60.7203 73.2791 61.0293 72.5345 61.0304 71.7578V70.4609H64.3898C64.7212 73.1444 66.0223 75.6141 68.048 77.405C70.0738 79.1959 72.6843 80.1844 75.3882 80.1844C78.092 80.1844 80.7026 79.1959 82.7283 77.405C84.7541 75.6141 86.0551 73.1444 86.3866 70.4609H95.0702C95.4328 70.4609 95.7806 70.3169 96.037 70.0605C96.2934 69.8041 96.4374 69.4564 96.4374 69.0938V51.0469C96.4377 50.4526 96.3685 49.8603 96.2312 49.282ZM93.7054 61.4977L90.0874 60.3992V58.4305H93.7054V61.4977ZM92.846 48.1781H75.703L67.0312 43.9945L67.0093 37.3438H87.3218L92.846 48.1781ZM53.5007 51.25H33.6624V38.2664H53.5007V51.25ZM22.3757 22.5508H42.214V35.532H22.3757V22.5508ZM11.089 38.2664H30.928V51.25H11.089V38.2664ZM6.29443 53.9844H58.296V58H6.29443V53.9844ZM17.3437 60.7344C15.9956 61.9087 14.9505 63.3907 14.2968 65.0547L12.003 60.7344H17.3437ZM24.6132 77.4531C22.9599 77.4531 21.3437 76.9629 19.969 76.0443C18.5943 75.1258 17.5228 73.8202 16.8901 72.2927C16.2574 70.7653 16.0919 69.0845 16.4144 67.4629C16.737 65.8414 17.5331 64.3519 18.7022 63.1828C19.8713 62.0137 21.3608 61.2175 22.9824 60.895C24.6039 60.5724 26.2847 60.738 27.8122 61.3707C29.3397 62.0034 30.6452 63.0748 31.5638 64.4495C32.4823 65.8242 32.9726 67.4404 32.9726 69.0938C32.9695 71.3102 32.0871 73.4348 30.5191 75.0013C28.9511 76.5678 26.8257 77.4482 24.6093 77.4492L24.6132 77.4531ZM35.6077 67.725C35.2697 65.0146 33.9416 62.5248 31.8788 60.7344H58.296V63.5156C58.2304 63.5109 58.1679 63.4953 58.1007 63.4953H45.2343C44.4576 63.4963 43.713 63.8053 43.1638 64.3545C42.6146 64.9037 42.3056 65.6483 42.3046 66.425V67.7227L35.6077 67.725ZM58.296 71.7563C58.2958 71.808 58.2752 71.8575 58.2386 71.8941C58.202 71.9307 58.1524 71.9514 58.1007 71.9516H45.2343C45.1825 71.9514 45.133 71.9307 45.0964 71.8941C45.0598 71.8575 45.0392 71.808 45.039 71.7563V66.4273C45.0392 66.3756 45.0598 66.3261 45.0964 66.2895C45.133 66.2529 45.1825 66.2322 45.2343 66.232H58.1007C58.1524 66.2322 58.202 66.2529 58.2386 66.2895C58.2752 66.3261 58.2958 66.3756 58.296 66.4273V71.7563ZM75.3905 77.4492C73.7372 77.4492 72.121 76.959 70.7463 76.0404C69.3716 75.1219 68.3002 73.8163 67.6675 72.2888C67.0348 70.7614 66.8692 69.0806 67.1918 67.459C67.5143 65.8375 68.3105 64.348 69.4796 63.1789C70.6486 62.0098 72.1381 61.2136 73.7597 60.8911C75.3813 60.5685 77.062 60.7341 78.5895 61.3668C80.117 61.9995 81.4226 63.0709 82.3411 64.4456C83.2596 65.8203 83.7499 67.4365 83.7499 69.0898C83.7478 71.3063 82.8665 73.4313 81.2992 74.9985C79.732 76.5658 77.6069 77.4472 75.3905 77.4492ZM86.389 67.725C86.0575 65.0415 84.7564 62.5719 82.7307 60.781C80.705 58.9901 78.0944 58.0016 75.3905 58.0016C72.6867 58.0016 70.0761 58.9901 68.0504 60.781C66.0247 62.5719 64.7236 65.0415 64.3921 67.725H61.0327V31.3656H82.7234C83.1926 31.3636 83.6531 31.4924 84.0533 31.7374C84.4535 31.9825 84.7775 32.3342 84.989 32.7531L85.9335 34.607H65.6382C65.4583 34.607 65.2801 34.6425 65.1139 34.7115C64.9477 34.7805 64.7968 34.8817 64.6698 35.0091C64.5428 35.1366 64.4422 35.2879 64.3737 35.4543C64.3053 35.6207 64.2704 35.799 64.271 35.9789L64.2968 44.8586C64.2975 45.115 64.3703 45.3659 64.5069 45.5829C64.6436 45.7998 64.8385 45.9738 65.0694 46.0852L74.7937 50.7766C74.9791 50.8658 75.1823 50.9123 75.3882 50.9125H93.6952C93.6952 50.957 93.703 51.0008 93.703 51.0453V55.6961H88.7179C88.5383 55.696 88.3605 55.7313 88.1946 55.8C88.0286 55.8686 87.8779 55.9693 87.7509 56.0963C87.6239 56.2233 87.5232 56.374 87.4546 56.54C87.3859 56.7059 87.3506 56.8837 87.3507 57.0633V61.4125C87.3505 61.7058 87.4446 61.9914 87.6192 62.227C87.7938 62.4627 88.0396 62.6359 88.3202 62.7211L93.703 64.3563V67.725H86.389Z" fill="#30373F"/>
<path id="Vector_3" d="M39.8195 41.2501C39.64 41.25 39.4621 41.2853 39.2962 41.354C39.1303 41.4226 38.9795 41.5233 38.8526 41.6503C38.7256 41.7773 38.6249 41.928 38.5562 42.094C38.4875 42.2599 38.4522 42.4377 38.4523 42.6173V46.9001C38.4523 47.2627 38.5964 47.6104 38.8528 47.8668C39.1092 48.1232 39.4569 48.2673 39.8195 48.2673C40.1821 48.2673 40.5299 48.1232 40.7863 47.8668C41.0427 47.6104 41.1867 47.2627 41.1867 46.9001V42.6165C41.1867 42.437 41.1514 42.2593 41.0826 42.0934C41.0139 41.9276 40.9132 41.7769 40.7862 41.65C40.6593 41.5231 40.5085 41.4225 40.3427 41.3539C40.1768 41.2853 39.999 41.25 39.8195 41.2501ZM47.3438 48.2665C47.7064 48.2665 48.0541 48.1225 48.3105 47.8661C48.5669 47.6097 48.7109 47.2619 48.7109 46.8993V42.6165C48.7109 42.2539 48.5669 41.9062 48.3105 41.6498C48.0541 41.3934 47.7064 41.2493 47.3438 41.2493C46.9811 41.2493 46.6334 41.3934 46.377 41.6498C46.1206 41.9062 45.9766 42.2539 45.9766 42.6165V46.8993C45.9765 47.0789 46.0118 47.2567 46.0804 47.4226C46.1491 47.5886 46.2498 47.7393 46.3768 47.8663C46.5038 47.9933 46.6545 48.094 46.8204 48.1626C46.9864 48.2313 47.1642 48.2666 47.3438 48.2665ZM28.532 25.5337C28.1694 25.5337 27.8217 25.6777 27.5653 25.9341C27.3089 26.1905 27.1648 26.5383 27.1648 26.9009V31.1837C27.1648 31.5463 27.3089 31.894 27.5653 32.1504C27.8217 32.4068 28.1694 32.5509 28.532 32.5509C28.8946 32.5509 29.2424 32.4068 29.4988 32.1504C29.7552 31.894 29.8992 31.5463 29.8992 31.1837V26.9009C29.8993 26.7213 29.864 26.5435 29.7954 26.3776C29.7267 26.2116 29.626 26.0609 29.499 25.9339C29.372 25.8069 29.2213 25.7062 29.0554 25.6376C28.8894 25.5689 28.7116 25.5336 28.532 25.5337ZM36.057 32.5509C36.2366 32.551 36.4144 32.5157 36.5804 32.447C36.7463 32.3783 36.897 32.2776 37.024 32.1507C37.151 32.0237 37.2517 31.8729 37.3204 31.707C37.389 31.5411 37.4243 31.3633 37.4242 31.1837V26.9009C37.4242 26.5383 37.2802 26.1905 37.0238 25.9341C36.7674 25.6777 36.4196 25.5337 36.057 25.5337C35.6944 25.5337 35.3467 25.6777 35.0903 25.9341C34.8339 26.1905 34.6898 26.5383 34.6898 26.9009V31.1837C34.6898 31.5463 34.8339 31.894 35.0903 32.1504C35.3467 32.4068 35.6944 32.5509 36.057 32.5509ZM17.2461 41.2501C17.0665 41.25 16.8887 41.2853 16.7228 41.354C16.5568 41.4226 16.4061 41.5233 16.2791 41.6503C16.1521 41.7773 16.0514 41.928 15.9828 42.094C15.9141 42.2599 15.8788 42.4377 15.8789 42.6173V46.9001C15.8789 47.2627 16.0229 47.6104 16.2793 47.8668C16.5357 48.1232 16.8835 48.2673 17.2461 48.2673C17.6087 48.2673 17.9564 48.1232 18.2128 47.8668C18.4692 47.6104 18.6133 47.2627 18.6133 46.9001V42.6165C18.6133 42.437 18.5779 42.2593 18.5092 42.0934C18.4405 41.9276 18.3398 41.7769 18.2128 41.65C18.0858 41.5231 17.9351 41.4225 17.7692 41.3539C17.6034 41.2853 17.4256 41.25 17.2461 41.2501ZM24.7703 41.2501C24.5907 41.25 24.4129 41.2853 24.247 41.354C24.0811 41.4226 23.9303 41.5233 23.8033 41.6503C23.6764 41.7773 23.5757 41.928 23.507 42.094C23.4383 42.2599 23.403 42.4377 23.4031 42.6173V46.9001C23.4031 47.2627 23.5472 47.6104 23.8036 47.8668C24.06 48.1232 24.4077 48.2673 24.7703 48.2673C25.1329 48.2673 25.4807 48.1232 25.7371 47.8668C25.9935 47.6104 26.1375 47.2627 26.1375 46.9001V42.6165C26.1375 42.437 26.1021 42.2593 26.0334 42.0934C25.9647 41.9276 25.864 41.7769 25.737 41.65C25.61 41.5231 25.4593 41.4225 25.2935 41.3539C25.1276 41.2853 24.9498 41.25 24.7703 41.2501Z" fill="#30373F"/>
</g>
</g>
</svg>
