<svg width="24" height="24" viewBox="0 0 24 24" fill="none" xmlns="http://www.w3.org/2000/svg">
<g clip-path="url(#clip0_4_821)">
<path fill-rule="evenodd" clip-rule="evenodd" d="M12 23.1125C5.38317 23.1125 0 18.0994 0 11.9375C0 5.77553 5.38317 0.762451 12 0.762451C18.6168 0.762451 24 5.77553 24 11.9375C24 18.0994 18.6168 23.1125 12 23.1125ZM18.223 15.8632C18.2942 15.8631 18.3624 15.8367 18.4127 15.7899C18.463 15.743 18.4913 15.6795 18.4914 15.6132V8.59757L12.3859 13.1126C12.273 13.1962 12.1364 13.238 12 13.238C11.8635 13.238 11.727 13.1962 11.614 13.1126L5.50856 8.59757V15.6132C5.50865 15.6795 5.53695 15.743 5.58726 15.7899C5.63757 15.8367 5.70578 15.8631 5.77692 15.8632H18.223ZM17.2874 8.01175L12 11.9219L6.71255 8.01175H17.2874ZM19.7328 8.26166V15.6133C19.7328 16.3886 19.0555 17.0193 18.223 17.0193H5.77692C4.94442 17.0193 4.26722 16.3886 4.26722 15.6133V8.26166C4.26722 7.48644 4.94447 6.85575 5.77692 6.85575H18.223C19.0555 6.85571 19.7328 7.48644 19.7328 8.26166Z" fill="#F5F5F5"/>
</g>
<defs>
<clipPath id="clip0_4_821">
<rect width="24" height="22.35" fill="white" transform="translate(0 0.762451)"/>
</clipPath>
</defs>
</svg>
