<svg width="24" height="24" viewBox="0 0 24 24" fill="none" xmlns="http://www.w3.org/2000/svg">
<path fill-rule="evenodd" clip-rule="evenodd" d="M12 23.1125C5.37364 23.1125 0 18.1083 0 11.9375C0 5.76665 5.37364 0.762451 12 0.762451C18.6264 0.762451 24 5.76665 24 11.9375C24 18.1083 18.6264 23.1125 12 23.1125ZM12 4.66877C15.2827 4.66877 17.9438 7.1469 17.9438 10.2039C17.9438 13.2609 12 19.206 12 19.206C12 19.206 6.05622 13.2609 6.05622 10.2039C6.05622 7.1469 8.71729 4.66877 12 4.66877ZM12 8.00473C13.2446 8.00473 14.2539 8.94466 14.2539 10.1038C14.2539 11.2628 13.2446 12.2027 12 12.2027C10.7554 12.2027 9.74608 11.2628 9.74608 10.1038C9.74608 8.94466 10.7554 8.00473 12 8.00473Z" fill="#F5F5F5"/>
</svg>
