<svg width="100" height="100" viewBox="0 0 100 100" fill="none" xmlns="http://www.w3.org/2000/svg">
<g id="svgexport-17 - 2023-09-09T160249.253 1" clip-path="url(#clip0_5_950)">
<g id="Group">
<path id="Vector" d="M49.9979 12.491C41.7143 12.491 34.9985 19.2061 34.9985 27.4905C34.9985 35.7741 41.7143 42.4893 49.9979 42.4893C58.2815 42.4893 64.9972 35.7741 64.9972 27.4905C64.9883 19.21 58.2778 12.5 49.9979 12.491ZM49.9979 39.1562C43.5552 39.1562 38.3316 33.9332 38.3316 27.4907C38.3316 21.047 43.5552 15.8242 49.9979 15.8242C56.4406 15.8242 61.6642 21.047 61.6642 27.4905C61.6566 33.9303 56.4377 39.1492 49.9979 39.156V39.1562Z" fill="#30373F"/>
<path id="Vector_2" d="M49.9978 19.1572C45.3958 19.1572 41.6646 22.8879 41.6646 27.4905C41.6646 32.0924 45.396 35.8229 49.9978 35.8229C54.5995 35.8229 58.331 32.0924 58.331 27.4905C58.3257 22.8901 54.5974 19.1627 49.9978 19.1572ZM49.9978 32.4899C47.2368 32.4899 44.9976 30.2515 44.9976 27.4905C44.9976 24.7289 47.2368 22.4905 49.9978 22.4905C52.7588 22.4905 54.998 24.7287 54.998 27.4905C54.9948 30.2507 52.7578 32.4867 49.9978 32.4899Z" fill="#30373F"/>
<path id="Vector_3" d="M74.9967 35.8229C76.8368 35.8213 78.3276 34.33 78.3297 32.4898V22.4903C78.3276 20.6503 76.8368 19.1595 74.9967 19.1572H69.9949C69.2845 17.4331 68.3486 15.8108 67.2119 14.3326L69.702 10.0144C69.9242 9.63578 70.0692 9.21693 70.1288 8.78198C70.1884 8.34704 70.1614 7.9046 70.0492 7.48015C69.9369 7.05581 69.7419 6.65783 69.4753 6.30906C69.2088 5.9603 68.876 5.66761 68.496 5.44782L59.8309 0.447448L59.8141 0.43905C58.2218 -0.465794 56.1979 0.0867213 55.2862 1.67493L52.79 6.00229C50.9355 5.76654 49.0585 5.76654 47.2039 6.00229L44.7177 1.69095C43.8027 0.0921899 41.7661 -0.464036 40.1646 0.447643L31.495 5.45075C31.1164 5.67047 30.7848 5.96266 30.5192 6.31061C30.2536 6.65856 30.0592 7.05545 29.9471 7.47859C29.835 7.90168 29.8075 8.34272 29.8662 8.77645C29.9248 9.21018 30.0684 9.62808 30.2888 10.0062L32.7835 14.3326C31.6467 15.8108 30.7108 17.4331 30.0004 19.1572H24.9988C23.1587 19.1595 21.6679 20.6503 21.6658 22.4904V32.4898C21.6679 34.33 23.1587 35.8213 24.9988 35.8229H30.0006C30.711 37.5472 31.6469 39.1698 32.7837 40.6483L30.2935 44.9657C30.0714 45.3443 29.9263 45.7632 29.8667 46.1981C29.8071 46.633 29.8341 47.0755 29.9462 47.4999C30.0583 47.9244 30.2533 48.3225 30.5199 48.6712C30.7864 49.02 31.1194 49.3127 31.4995 49.5323L40.1808 54.5408C40.6824 54.824 41.2487 54.9725 41.8247 54.9719C42.41 54.9751 42.9856 54.8224 43.4923 54.5295C43.999 54.2365 44.4186 53.8138 44.7077 53.3049L47.2039 48.977C49.0585 49.2135 50.9355 49.2135 52.79 48.977L55.277 53.2897C56.1926 54.8887 58.2294 55.4441 59.8309 54.5318L68.5005 49.5293C68.8791 49.3097 69.2108 49.0175 69.4764 48.6695C69.742 48.3215 69.9364 47.9246 70.0484 47.5014C70.1604 47.0783 70.1879 46.6371 70.1293 46.2033C70.0706 45.7695 69.927 45.3515 69.7067 44.9733L67.2121 40.6483C68.3488 39.1698 69.2847 37.5472 69.9951 35.8229H74.9967ZM67.2724 33.6105C66.5323 35.7347 65.3989 37.7006 63.9315 39.4055C63.7072 39.6673 63.5696 39.9922 63.5377 40.3354C63.5059 40.6787 63.5814 41.0233 63.7538 41.3219L66.8306 46.6455L58.1753 51.6402L55.1085 46.3236C54.9367 46.0252 54.6767 45.7875 54.3642 45.643C54.0517 45.4986 53.7022 45.4545 53.3636 45.517C51.1383 45.9228 48.858 45.9228 46.6327 45.517C46.2941 45.454 45.9443 45.4978 45.6317 45.6423C45.3192 45.7868 45.0592 46.0249 44.8878 46.3236L41.8315 51.6456L33.1756 46.6394L36.2419 41.3226C36.4142 41.0241 36.4897 40.6795 36.458 40.3363C36.4263 39.9931 36.2889 39.6682 36.0648 39.4063C34.5967 37.7017 33.463 35.7357 32.7231 33.6113C32.6098 33.2839 32.3972 32.9999 32.115 32.799C31.8328 32.598 31.495 32.4899 31.1486 32.4898H24.9988V22.4903H31.1486C31.4948 22.4901 31.8325 22.3821 32.1145 22.1813C32.3966 21.9805 32.6091 21.6968 32.7225 21.3696C33.4632 19.2456 34.597 17.2799 36.0648 15.5753C36.289 15.3134 36.4264 14.9883 36.4583 14.645C36.4901 14.3017 36.4147 13.9569 36.2425 13.6582L33.1651 8.33461L41.8202 3.3399L44.887 8.65667C45.058 8.95572 45.3179 9.19406 45.6307 9.33855C45.9434 9.48304 46.2933 9.5265 46.6319 9.46288C48.8573 9.0578 51.1375 9.0578 53.3628 9.46288C53.7014 9.52578 54.0512 9.48206 54.3638 9.33776C54.6765 9.19346 54.9367 8.95569 55.1085 8.65725L58.1638 3.34146H58.1669L58.1767 3.34361L66.8189 8.34301L63.753 13.6598C63.5807 13.9583 63.5051 14.3029 63.5368 14.6461C63.5685 14.9893 63.7059 15.3142 63.93 15.5761C65.3977 17.2809 66.5313 19.2469 67.2716 21.3712C67.3854 21.6982 67.5983 21.9817 67.8806 22.1823C68.1629 22.3828 68.5007 22.4905 68.8469 22.4903H74.9967V32.4898H68.8469C68.5006 32.4898 68.1628 32.5977 67.8806 32.7986C67.5983 32.9994 67.3857 33.2832 67.2722 33.6105H67.2724Z" fill="#30373F"/>
<path id="Vector_4" d="M5.00018 95.821H13.3326C14.0319 95.819 14.7229 95.6696 15.3605 95.3823C15.9981 95.0951 16.5679 94.6765 17.0327 94.154H58.8309C61.2761 94.1547 63.6743 93.4821 65.7626 92.2102L97.0029 73.194C97.7449 72.742 98.3843 72.14 98.8801 71.4265C99.3759 70.713 99.7172 69.9037 99.882 69.0506C100.047 68.224 100.039 67.3722 99.8596 66.5487C99.6801 65.7251 99.3327 64.9474 98.8391 64.2641C98.8096 64.215 98.7775 64.1674 98.743 64.1215C97.959 63.0738 96.8647 62.2998 95.6157 61.9095C94.3666 61.5193 93.0263 61.5327 91.7853 61.9478L60.9364 72.2312C60.4258 72.4008 59.8913 72.4874 59.3533 72.4876H58.3959C58.7871 71.4164 58.9344 70.2715 58.8271 69.1362C58.7198 68.0009 58.3606 66.9039 57.7756 65.925L57.6262 65.6764C56.7336 64.1992 55.4758 62.9767 53.9738 62.1265C52.4718 61.2763 50.7763 60.827 49.0504 60.8219H40.334C37.2596 60.8182 34.2772 59.772 31.8742 57.8542C28.8788 55.4647 25.1619 54.1609 21.3301 54.1556H18.0252C17.6828 53.1836 17.0479 52.3413 16.2077 51.7446C15.3675 51.1478 14.3632 50.8257 13.3326 50.8225H5.00018C2.23994 50.8256 0.00312487 53.0625 0 55.8227V90.821C0.00312487 93.5812 2.23994 95.818 5.00018 95.821ZM29.7907 60.4573C32.7854 62.8469 36.5019 64.1505 40.3332 64.1551H49.0496C50.2001 64.1583 51.3304 64.4576 52.3316 65.0242C53.3328 65.5909 54.1713 66.4058 54.7662 67.3905L54.9164 67.6392C55.3611 68.3808 55.575 69.238 55.5308 70.1015C55.4867 70.9651 55.1864 71.796 54.6684 72.4884H44.5393C41.2485 72.4859 38.0309 73.4603 35.2944 75.2881L34.0737 76.1021C33.706 76.3473 33.4507 76.7286 33.364 77.1621C33.2774 77.5955 33.3665 78.0457 33.6117 78.4134C33.857 78.7812 34.2383 79.0365 34.6717 79.1231C35.1052 79.2097 35.5553 79.1206 35.9231 78.8754L37.1437 78.0614C39.3326 76.5987 41.9066 75.819 44.5393 75.8212H59.3525C60.249 75.8212 61.1394 75.6773 61.9891 75.3941L92.8396 65.1117C93.3911 64.9217 93.9874 64.9039 94.5493 65.0606C95.1112 65.2173 95.6122 65.5411 95.9859 65.989C96.0148 66.0379 96.0476 66.0844 96.0812 66.131C96.3237 66.4546 96.4959 66.8253 96.5869 67.2193C96.6778 67.6133 96.6853 68.0219 96.6091 68.419C96.5329 68.816 96.3744 69.1926 96.144 69.5248C95.9136 69.8569 95.6162 70.1372 95.2711 70.3476L64.0308 89.3636C62.4637 90.3165 60.6649 90.8205 58.8309 90.8206H18.3326V57.489H21.3301C24.4049 57.493 27.3875 58.5394 29.7907 60.4574V60.4573ZM3.33306 55.8227C3.33347 55.3807 3.50925 54.9569 3.8218 54.6443C4.13436 54.3318 4.55816 54.156 5.00018 54.1556H13.3326C13.7746 54.156 14.1983 54.3318 14.5108 54.6443C14.8233 54.9568 14.9991 55.3805 14.9996 55.8225V90.821C14.9988 91.7409 14.2527 92.4863 13.3326 92.4871H5.00018C4.0801 92.4863 3.33384 91.7411 3.33306 90.821V55.8227Z" fill="#30373F"/>
</g>
</g>
<defs>
<clipPath id="clip0_5_950">
<rect width="100" height="100" fill="white"/>
</clipPath>
</defs>
</svg>
