<svg width="40" height="40" viewBox="0 0 40 40" fill="none" xmlns="http://www.w3.org/2000/svg">
<g clip-path="url(#clip0_26_42)">
<path d="M34.465 27.8402C32.0486 25.7735 29.5963 24.5216 27.2096 26.5852L25.7844 27.8324C24.7417 28.7378 22.803 32.968 15.3072 24.3452C7.81292 15.7333 12.2726 14.3924 13.3169 13.4949L14.7499 12.2461C17.1241 10.1778 16.2281 7.57408 14.5158 4.89389L13.4824 3.27047C11.7622 0.59652 9.88902 -1.15958 7.50853 0.905593L6.22229 2.0295C5.17019 2.79593 2.22932 5.28725 1.51595 10.0201C0.657413 15.699 3.36571 22.202 9.57058 29.3372C15.7677 36.4755 21.8352 40.0611 27.5827 39.9987C32.3593 39.9472 35.2439 37.384 36.1462 36.4521L37.4371 35.3267C39.8114 33.2631 38.3362 31.162 35.9183 29.0906L34.465 27.8402Z" fill="#F5F5F5"/>
</g>
<defs>
<clipPath id="clip0_26_42">
<rect width="40" height="40" fill="white"/>
</clipPath>
</defs>
</svg>
