<svg width="100" height="100" viewBox="0 0 100 100" fill="none" xmlns="http://www.w3.org/2000/svg">
<g clip-path="url(#clip0_5_931)">
<path d="M93.25 3.42845C92.1726 2.3363 90.8877 1.47044 89.471 0.881707C88.0543 0.292977 86.5342 -0.00675371 85 0.000115449C81.9069 0.00364438 78.9415 1.23394 76.7543 3.4211C74.5672 5.60826 73.3369 8.57367 73.3334 11.6668V15.8434C73.236 18.2112 72.3315 20.4743 70.77 22.2568C70.4283 22.6977 70.1917 23.2107 70.0782 23.7569C69.9647 24.3031 69.9773 24.8679 70.115 25.4085C70.2477 25.9346 70.5005 26.4229 70.8535 26.835C71.2066 27.2471 71.6504 27.5717 72.15 27.7834C72.4617 27.9168 72.7867 28.0301 73.12 28.1351C72.1708 29.5241 71.6641 31.1678 71.6667 32.8501V36.6668C71.6667 37.5508 72.0179 38.3987 72.643 39.0238C73.2681 39.6489 74.116 40.0001 75 40.0001H95C95.8841 40.0001 96.7319 39.6489 97.3571 39.0238C97.9822 38.3987 98.3334 37.5508 98.3334 36.6668V32.8501C98.3355 31.1676 97.8282 29.5239 96.8784 28.1351C97.2117 28.0301 97.545 27.9151 97.855 27.7818C98.3536 27.5696 98.7962 27.2449 99.1484 26.8332C99.5006 26.4215 99.7527 25.9338 99.885 25.4085C100.022 24.8677 100.034 24.3027 99.9203 23.7565C99.8062 23.2103 99.569 22.6974 99.2267 22.2568C97.6674 20.4732 96.7642 18.2105 96.6667 15.8434V11.6668C96.6738 10.1354 96.3753 8.6179 95.7886 7.20329C95.2019 5.78868 94.3389 4.50534 93.25 3.42845ZM93.0984 25.0951L91.9317 24.6301C93.0952 23.3442 93.8566 21.7456 94.1217 20.0318C94.7289 21.5721 95.5656 23.0117 96.6034 24.3018C96.6321 24.3398 96.6519 24.3838 96.6614 24.4306C96.6709 24.4773 96.6699 24.5255 96.6584 24.5718C96.6533 24.6021 96.6408 24.6306 96.6219 24.6548C96.6029 24.6789 96.5782 24.698 96.55 24.7101C95.5888 25.0842 94.5696 25.2872 93.5384 25.3101C93.3884 25.2468 93.2517 25.1668 93.0984 25.1018V25.0951ZM76.4617 25.3101C75.4345 25.2867 74.4193 25.0842 73.4617 24.7118C73.4324 24.7002 73.4065 24.6812 73.3867 24.6567C73.3668 24.6321 73.3536 24.6029 73.3484 24.5718C73.3369 24.5259 73.3357 24.478 73.3449 24.4316C73.3541 24.3852 73.3735 24.3415 73.4017 24.3034C74.44 23.0129 75.2773 21.5727 75.885 20.0318C76.1502 21.7456 76.9115 23.3442 78.075 24.6301L76.8984 25.0984C76.7417 25.1668 76.6084 25.2484 76.4617 25.3168V25.3101ZM79.145 18.5901C79.1821 18.3526 79.1673 18.1098 79.1016 17.8785C79.036 17.6472 78.9211 17.4329 78.7648 17.2502C78.6086 17.0674 78.4146 16.9207 78.1963 16.82C77.978 16.7193 77.7405 16.667 77.5 16.6668C77.279 16.6668 77.0671 16.579 76.9108 16.4227C76.7545 16.2664 76.6667 16.0545 76.6667 15.8335V15.8251C76.6689 15.6055 76.7577 15.3957 76.9137 15.2412C77.0697 15.0868 77.2805 15.0001 77.5 15.0001C80.9634 15.1405 84.3733 14.1107 87.18 12.0768C87.6724 13.0405 88.4426 13.8343 89.3911 14.3555C90.3395 14.8767 91.4226 15.1012 92.5 15.0001C92.7196 15.0001 92.9303 15.0868 93.0864 15.2412C93.2424 15.3957 93.3312 15.6055 93.3334 15.8251V15.8335C93.3334 16.0545 93.2456 16.2664 93.0893 16.4227C92.933 16.579 92.721 16.6668 92.5 16.6668C92.2617 16.6685 92.0265 16.7213 91.8102 16.8216C91.594 16.922 91.4019 17.0675 91.2467 17.2484C91.0901 17.43 90.974 17.6428 90.9059 17.8727C90.8378 18.1025 90.8193 18.3442 90.8517 18.5818C90.91 19.0184 91.2584 22.8985 85.5184 24.9151C85.1812 25.0368 84.8122 25.0368 84.475 24.9151C78.7417 22.8935 79.09 19.0135 79.145 18.5968V18.5901ZM85 3.33345C87.209 3.33741 89.3263 4.21666 90.8882 5.77861C92.4502 7.34055 93.3294 9.45786 93.3334 11.6668V11.7501C93.059 11.6951 92.7799 11.6672 92.5 11.6668C90.6184 11.6668 90.27 10.8468 90.14 10.5368C89.9478 10.0825 89.6531 9.67877 89.279 9.35725C88.9049 9.03574 88.4614 8.80513 87.9834 8.68345C87.5257 8.56919 87.0475 8.56411 86.5875 8.66862C86.1275 8.77313 85.6984 8.98431 85.335 9.28512C83.0847 10.9756 80.3105 11.8189 77.5 11.6668C77.2202 11.6672 76.9411 11.6951 76.6667 11.7501V11.6668C76.6667 9.45665 77.5447 7.33703 79.1075 5.77423C80.6703 4.21142 82.7899 3.33345 85 3.33345ZM95 36.6668H75V32.8501C74.9976 31.8508 75.2946 30.8738 75.8529 30.0449C76.4111 29.2161 77.2048 28.5735 78.1317 28.2001L81.0967 27.0218C81.8251 27.4304 82.5866 27.7766 83.3734 28.0568C84.427 28.4257 85.5747 28.4257 86.6284 28.0568C87.4146 27.7766 88.1756 27.4304 88.9034 27.0218L91.86 28.1884C92.7903 28.5613 93.5871 29.2051 94.147 30.0363C94.707 30.8676 95.0041 31.8479 95 32.8501V36.6668ZM3.33337 40.0001H23.3334C24.2174 40.0001 25.0653 39.6489 25.6904 39.0238C26.3155 38.3987 26.6667 37.5508 26.6667 36.6668V32.8501C26.6714 31.1826 26.1748 29.5522 25.2413 28.1705C24.3078 26.7888 22.9805 25.7197 21.4317 25.1018L20.455 24.7135C20.8703 24.3299 21.2284 23.8887 21.5184 23.4035C22.0151 22.2232 22.3141 20.9692 22.4034 19.6918C23.1707 19.3796 23.8276 18.8459 24.2901 18.1586C24.7526 17.4714 24.9998 16.6618 25 15.8335V11.6668C25 8.57259 23.7709 5.60513 21.5829 3.4172C19.395 1.22928 16.4276 0.000115449 13.3334 0.000115449C10.2392 0.000115449 7.27172 1.22928 5.08379 3.4172C2.89587 5.60513 1.6667 8.57259 1.6667 11.6668V15.8335C1.66695 16.6618 1.91411 17.4714 2.37663 18.1586C2.83915 18.8459 3.49603 19.3796 4.26337 19.6918C4.35519 20.9769 4.65755 22.2381 5.15837 23.4251C5.44487 23.9027 5.79785 24.337 6.2067 24.7151L5.2267 25.1051C3.67986 25.7239 2.35457 26.7931 1.42262 28.174C0.490682 29.555 -0.00492992 31.1841 3.697e-05 32.8501V36.6668C3.697e-05 37.5508 0.351226 38.3987 0.976348 39.0238C1.60147 39.6489 2.44932 40.0001 3.33337 40.0001ZM13.3334 3.33345C15.4809 3.34075 17.5427 4.17683 19.0888 5.66732C20.6348 7.15781 21.5458 9.18763 21.6317 11.3334C21.2085 10.7545 20.6576 10.2809 20.0217 9.94933C19.3858 9.61779 18.682 9.43727 17.965 9.42178C16.9015 9.34771 15.8774 8.98909 15 8.38345C14.5149 8.03334 13.9319 7.84478 13.3336 7.84448C12.7354 7.84418 12.1522 8.03216 11.6667 8.38178C10.7861 8.988 9.75839 9.34555 8.6917 9.41678C7.97602 9.43437 7.27397 9.61639 6.63989 9.94875C6.00581 10.2811 5.45669 10.7549 5.03504 11.3334C5.12093 9.18763 6.0319 7.15781 7.57798 5.66732C9.12405 4.17683 11.1858 3.34075 13.3334 3.33345ZM5.00004 15.8335C5.00004 15.6124 5.08783 15.4005 5.24411 15.2442C5.40039 15.0879 5.61236 15.0001 5.83337 15.0001C6.20002 15.0003 6.55649 14.8795 6.84756 14.6565C7.13862 14.4336 7.34804 14.1208 7.44337 13.7668C7.52221 13.4815 7.69028 13.2289 7.92299 13.0459C8.1557 12.863 8.44084 12.7593 8.7367 12.7501C10.372 12.6779 11.9585 12.1717 13.3334 11.2834C14.7085 12.1712 16.2949 12.6774 17.93 12.7501C18.2259 12.7593 18.511 12.863 18.7438 13.0459C18.9765 13.2289 19.1445 13.4815 19.2234 13.7668C19.3187 14.1208 19.5281 14.4336 19.8192 14.6565C20.1102 14.8795 20.4667 15.0003 20.8334 15.0001C21.0544 15.0001 21.2663 15.0879 21.4226 15.2442C21.5789 15.4005 21.6667 15.6124 21.6667 15.8335C21.6667 16.0545 21.5789 16.2664 21.4226 16.4227C21.2663 16.579 21.0544 16.6668 20.8334 16.6668C20.4024 16.6665 19.988 16.8331 19.6773 17.1317C19.3665 17.4304 19.1835 17.8378 19.1667 18.2685C19.1417 19.4941 18.9362 20.7094 18.5567 21.8751C17.1739 23.4238 15.3518 24.5139 13.3334 25.0001C11.3221 24.5159 9.50457 23.4339 8.12004 21.8968C7.73079 20.7251 7.52174 19.5012 7.50004 18.2668C7.48281 17.8364 7.29964 17.4294 6.98892 17.1311C6.67821 16.8329 6.26409 16.6664 5.83337 16.6668C5.61236 16.6668 5.40039 16.579 5.24411 16.4227C5.08783 16.2664 5.00004 16.0545 5.00004 15.8335ZM3.33337 32.8501C3.33094 31.8508 3.62798 30.8738 4.18618 30.0449C4.74439 29.2161 5.53814 28.5735 6.46504 28.2001L9.3817 27.0334C10.5769 27.7747 11.9316 28.2203 13.3334 28.3334C14.7344 28.2227 16.089 27.7799 17.285 27.0418L20.1934 28.1968C21.1224 28.5691 21.9182 29.2116 22.478 30.0412C23.0378 30.8708 23.3358 31.8493 23.3334 32.8501V36.6668H3.33337V32.8501ZM94.765 85.1018L93.7884 84.7134C94.2036 84.3299 94.5617 83.8887 94.8517 83.4035C95.3484 82.2232 95.6474 80.9692 95.7367 79.6918C96.504 79.3796 97.1609 78.8459 97.6234 78.1586C98.086 77.4714 98.3331 76.6618 98.3334 75.8335V71.6668C98.3334 68.5726 97.1042 65.6051 94.9163 63.4172C92.7284 61.2293 89.7609 60.0001 86.6667 60.0001C83.5725 60.0001 80.605 61.2293 78.4171 63.4172C76.2292 65.6051 75 68.5726 75 71.6668V75.8335C75.0003 76.6618 75.2475 77.4714 75.71 78.1586C76.1725 78.8459 76.8294 79.3796 77.5967 79.6918C77.6885 80.9769 77.9909 82.2381 78.4917 83.4251C78.7782 83.9027 79.1312 84.337 79.54 84.7151L78.56 85.1051C77.0132 85.7239 75.6879 86.7931 74.756 88.174C73.824 89.555 73.3284 91.1841 73.3334 92.8501V96.6668C73.3334 97.5508 73.6846 98.3987 74.3097 99.0238C74.9348 99.6489 75.7826 100 76.6667 100H96.6667C97.5508 100 98.3986 99.6489 99.0237 99.0238C99.6488 98.3987 100 97.5508 100 96.6668V92.8501C100.005 91.1826 99.5082 89.5522 98.5746 88.1705C97.6411 86.7888 96.3138 85.7197 94.765 85.1018ZM86.6667 63.3335C88.8142 63.3408 90.876 64.1768 92.4221 65.6673C93.9682 67.1578 94.8792 69.1876 94.965 71.3335C94.5418 70.7545 93.9909 70.2809 93.355 69.9493C92.7191 69.6178 92.0153 69.4373 91.2984 69.4218C90.2348 69.3477 89.2108 68.9891 88.3334 68.3834C87.8492 68.0362 87.2683 67.8495 86.6725 67.8495C86.0767 67.8495 85.4959 68.0362 85.0117 68.3834C84.1311 68.9897 83.1034 69.3472 82.0367 69.4184C81.3197 69.4339 80.616 69.6145 79.9801 69.946C79.3442 70.2775 78.7932 70.7512 78.37 71.3301C78.4567 69.1852 79.3679 67.1564 80.9135 65.6667C82.4591 64.177 84.52 63.3411 86.6667 63.3335ZM78.3334 75.8335C78.3334 75.6124 78.4212 75.4005 78.5774 75.2442C78.7337 75.0879 78.9457 75.0001 79.1667 75.0001C79.5334 75.0003 79.8898 74.8795 80.1809 74.6565C80.472 74.4336 80.6814 74.1208 80.7767 73.7668C80.8555 73.4815 81.0236 73.2289 81.2563 73.0459C81.489 72.863 81.7742 72.7594 82.07 72.7501C83.7053 72.6779 85.2918 72.1717 86.6667 71.2835C88.0418 72.1712 89.6282 72.6774 91.2634 72.7501C91.5592 72.7594 91.8444 72.863 92.0771 73.0459C92.3098 73.2289 92.4779 73.4815 92.5567 73.7668C92.652 74.1208 92.8615 74.4336 93.1525 74.6565C93.4436 74.8795 93.8 75.0003 94.1667 75.0001C94.3877 75.0001 94.5997 75.0879 94.756 75.2442C94.9122 75.4005 95 75.6124 95 75.8335C95 76.0545 94.9122 76.2664 94.756 76.4227C94.5997 76.579 94.3877 76.6668 94.1667 76.6668C93.7357 76.6665 93.3213 76.8331 93.0106 77.1317C92.6998 77.4304 92.5168 77.8378 92.5 78.2684C92.4751 79.4941 92.2695 80.7094 91.89 81.8751C90.5073 83.4238 88.6851 84.5139 86.6667 85.0001C84.6554 84.5159 82.8379 83.4339 81.4534 81.8968C81.0641 80.7252 80.8551 79.5012 80.8334 78.2668C80.8161 77.8364 80.633 77.4294 80.3223 77.1311C80.0115 76.8329 79.5974 76.6664 79.1667 76.6668C78.9457 76.6668 78.7337 76.579 78.5774 76.4227C78.4212 76.2664 78.3334 76.0545 78.3334 75.8335ZM96.6667 96.6668H76.6667V92.8501C76.6643 91.8508 76.9613 90.8738 77.5195 90.0449C78.0777 89.2161 78.8715 88.5735 79.7984 88.2001L82.715 87.0335C83.9102 87.7747 85.2649 88.2203 86.6667 88.3335C88.0678 88.2227 89.4223 87.7799 90.6184 87.0418L93.5267 88.1968C94.4557 88.5691 95.2516 89.2116 95.8114 90.0412C96.3712 90.8708 96.6691 91.8493 96.6667 92.8501V96.6668ZM29.885 85.4084C30.0223 84.8677 30.0344 84.3027 29.9203 83.7565C29.8062 83.2103 29.569 82.6974 29.2267 82.2568C27.6674 80.4733 26.7642 78.2105 26.6667 75.8435V71.6668C26.6627 68.5738 25.4323 65.6087 23.2452 63.4216C21.0582 61.2345 18.093 60.0041 15 60.0001C11.9069 60.0036 8.94152 61.2339 6.75436 63.4211C4.5672 65.6083 3.3369 68.5737 3.33337 71.6668V75.8435C3.23604 78.2112 2.3315 80.4743 0.770037 82.2568C0.428314 82.6977 0.191692 83.2107 0.0781871 83.7569C-0.0353183 84.303 -0.0227152 84.8679 0.115037 85.4084C0.247675 85.9346 0.500454 86.4229 0.853536 86.835C1.20662 87.2471 1.65039 87.5717 2.15004 87.7834C2.4617 87.9168 2.7867 88.0301 3.12004 88.1351C2.17076 89.5241 1.66411 91.1678 1.6667 92.8501V96.6668C1.6667 97.5508 2.01789 98.3987 2.64301 99.0238C3.26814 99.6489 4.11598 100 5.00004 100H25C25.8841 100 26.7319 99.6489 27.3571 99.0238C27.9822 98.3987 28.3334 97.5508 28.3334 96.6668V92.8501C28.3355 91.1676 27.8282 89.5239 26.8784 88.1351C27.2117 88.0301 27.545 87.9151 27.855 87.7818C28.3536 87.5696 28.7962 87.2449 29.1484 86.8332C29.5006 86.4215 29.7527 85.9338 29.885 85.4084ZM23.0984 85.1018L21.9317 84.6368C23.0952 83.3508 23.8566 81.7522 24.1217 80.0385C24.7289 81.5788 25.5656 83.0184 26.6034 84.3084C26.6321 84.3465 26.6519 84.3905 26.6614 84.4372C26.6709 84.4839 26.6699 84.5322 26.6584 84.5785C26.6533 84.6087 26.6408 84.6373 26.6219 84.6614C26.6029 84.6856 26.5782 84.7046 26.55 84.7168C25.5888 85.0908 24.5696 85.2939 23.5384 85.3168C23.3884 85.2468 23.2517 85.1668 23.0984 85.1018ZM6.4617 85.3168C5.43452 85.2933 4.4193 85.0909 3.4617 84.7185C3.43236 84.7068 3.40651 84.6879 3.38666 84.6633C3.3668 84.6388 3.35362 84.6096 3.34837 84.5785C3.33687 84.5326 3.33569 84.4847 3.34492 84.4383C3.35414 84.3919 3.37353 84.3481 3.4017 84.3101C4.44004 83.0195 5.27728 81.5794 5.88504 80.0385C6.15019 81.7522 6.91153 83.3508 8.07504 84.6368L6.89837 85.1051C6.7417 85.1668 6.60837 85.2485 6.4617 85.3168ZM9.14504 78.5968C9.18313 78.3587 9.16912 78.1152 9.10398 77.8831C9.03885 77.651 8.92413 77.4358 8.76774 77.2523C8.61136 77.0688 8.41703 76.9215 8.19817 76.8204C7.97931 76.7193 7.74112 76.6669 7.50004 76.6668C7.27902 76.6668 7.06706 76.579 6.91078 76.4227C6.7545 76.2664 6.6667 76.0545 6.6667 75.8335C6.6667 75.6124 6.7545 75.4005 6.91078 75.2442C7.06706 75.0879 7.27902 75.0001 7.50004 75.0001C10.9634 75.1405 14.3733 74.1107 17.18 72.0768C17.6724 73.0405 18.4426 73.8343 19.3911 74.3555C20.3395 74.8767 21.4226 75.1012 22.5 75.0001C22.7196 75.0001 22.9303 75.0868 23.0864 75.2412C23.2424 75.3957 23.3312 75.6056 23.3334 75.8251V75.8335C23.3334 76.0545 23.2456 76.2664 23.0893 76.4227C22.933 76.579 22.7211 76.6668 22.5 76.6668C22.2617 76.6685 22.0265 76.7213 21.8103 76.8216C21.594 76.922 21.4019 77.0675 21.2467 77.2485C21.0901 77.43 20.974 77.6428 20.9059 77.8727C20.8378 78.1025 20.8193 78.3442 20.8517 78.5818C20.91 79.0184 21.2584 82.8985 15.5184 84.9151C15.1812 85.0368 14.8122 85.0368 14.475 84.9151C8.7417 82.8935 9.09004 79.0135 9.14504 78.5968ZM15 63.3335C17.209 63.3374 19.3263 64.2167 20.8882 65.7786C22.4502 67.3406 23.3294 69.4579 23.3334 71.6668V71.7501C23.059 71.6951 22.7799 71.6672 22.5 71.6668C20.6184 71.6668 20.27 70.8468 20.14 70.5368C19.9478 70.0825 19.6531 69.6788 19.279 69.3573C18.9049 69.0357 18.4614 68.8051 17.9834 68.6834C17.5257 68.5692 17.0475 68.5641 16.5875 68.6686C16.1275 68.7731 15.6984 68.9843 15.335 69.2851C13.0847 70.9756 10.3105 71.8189 7.50004 71.6668C7.2202 71.6672 6.94107 71.6951 6.6667 71.7501V71.6668C6.6667 69.4566 7.54468 67.337 9.10748 65.7742C10.6703 64.2114 12.7899 63.3335 15 63.3335ZM25 96.6668H5.00004V92.8501C4.9976 91.8508 5.29465 90.8738 5.85285 90.0449C6.41105 89.2161 7.20481 88.5735 8.1317 88.2001L11.0967 87.0218C11.8251 87.4304 12.5867 87.7766 13.3734 88.0568C14.427 88.4257 15.5747 88.4257 16.6284 88.0568C17.4146 87.7766 18.1756 87.4304 18.9034 87.0218L21.86 88.1884C22.7903 88.5613 23.5871 89.2051 24.1471 90.0363C24.707 90.8676 25.0041 91.8479 25 92.8501V96.6668ZM63.3334 30.0001H36.6667C34.8986 30.0001 33.2029 30.7025 31.9527 31.9527C30.7024 33.203 30 34.8987 30 36.6668V63.3335C30 65.1016 30.7024 66.7972 31.9527 68.0475C33.2029 69.2977 34.8986 70.0001 36.6667 70.0001H63.3334C65.1015 70.0001 66.7972 69.2977 68.0474 68.0475C69.2977 66.7972 70 65.1016 70 63.3335V36.6668C70 34.8987 69.2977 33.203 68.0474 31.9527C66.7972 30.7025 65.1015 30.0001 63.3334 30.0001ZM43.3334 33.3335H56.6667V44.7218C56.6691 44.7721 56.6566 44.822 56.6308 44.8653C56.605 44.9085 56.5671 44.9433 56.5217 44.9651C56.4781 44.9893 56.4287 45.0008 56.379 44.9984C56.3292 44.9961 56.2811 44.9799 56.24 44.9518L50.925 41.4068C50.6512 41.2241 50.3293 41.1265 50 41.1265C49.6708 41.1265 49.3489 41.2241 49.075 41.4068L43.76 44.9518C43.7189 44.9797 43.6708 44.9958 43.6211 44.9981C43.5714 45.0005 43.522 44.9891 43.4784 44.9651C43.433 44.9433 43.395 44.9085 43.3693 44.8653C43.3435 44.822 43.331 44.7721 43.3334 44.7218V33.3335ZM66.6667 63.3335C66.6667 64.2175 66.3155 65.0654 65.6904 65.6905C65.0653 66.3156 64.2174 66.6668 63.3334 66.6668H36.6667C35.7826 66.6668 34.9348 66.3156 34.3097 65.6905C33.6846 65.0654 33.3334 64.2175 33.3334 63.3335V36.6668C33.3334 35.7827 33.6846 34.9349 34.3097 34.3098C34.9348 33.6846 35.7826 33.3335 36.6667 33.3335H40V44.7218C40.0006 45.3745 40.1783 46.0147 40.514 46.5744C40.8497 47.1341 41.3309 47.5923 41.9064 47.9002C42.4819 48.208 43.1301 48.354 43.782 48.3226C44.4339 48.2912 45.0651 48.0835 45.6084 47.7218L50 44.7968L54.3917 47.7251C54.9352 48.087 55.5667 48.2947 56.2189 48.326C56.8711 48.3572 57.5195 48.211 58.0951 47.9027C58.6707 47.5945 59.1519 47.1358 59.4874 46.5756C59.8229 46.0154 60 45.3747 60 44.7218V33.3335H63.3334C64.2174 33.3335 65.0653 33.6846 65.6904 34.3098C66.3155 34.9349 66.6667 35.7827 66.6667 36.6668V63.3335Z" fill="#30373F"/>
<path d="M46.6667 53.3333H40.0001C39.116 53.3333 38.2682 53.6844 37.6431 54.3096C37.0179 54.9347 36.6667 55.7825 36.6667 56.6666V59.9999C36.6667 60.884 37.0179 61.7318 37.6431 62.3569C38.2682 62.9821 39.116 63.3333 40.0001 63.3333H46.6667C47.5508 63.3333 48.3986 62.9821 49.0238 62.3569C49.6489 61.7318 50.0001 60.884 50.0001 59.9999V56.6666C50.0001 55.7825 49.6489 54.9347 49.0238 54.3096C48.3986 53.6844 47.5508 53.3333 46.6667 53.3333ZM40.0001 59.9999V56.6666H46.6667V59.9999H40.0001Z" fill="#30373F"/>
</g>
<defs>
<clipPath id="clip0_5_931">
<rect width="100" height="100" fill="white"/>
</clipPath>
</defs>
</svg>
