<svg width="100" height="100" viewBox="0 0 100 100" fill="none" xmlns="http://www.w3.org/2000/svg">
<g id="svgexport-17 - 2023-09-09T155213.537 1">
<g id="Group">
<path id="Vector" d="M48.4375 48.4376C48.8035 48.4378 49.158 48.3095 49.4391 48.0751L56.186 42.4501C60.1233 39.1773 63.2906 35.0766 65.4622 30.44C67.6339 25.8034 68.7565 20.745 68.75 15.6251C68.75 15.2107 68.5854 14.8133 68.2924 14.5202C67.9994 14.2272 67.6019 14.0626 67.1875 14.0626H66.25C60.1314 14.0539 54.1965 11.9713 49.4141 8.15479C49.137 7.93291 48.7925 7.81201 48.4375 7.81201C48.0825 7.81201 47.7381 7.93291 47.461 8.15479C42.6785 11.9713 36.7436 14.0539 30.625 14.0626H29.6875C29.2731 14.0626 28.8757 14.2272 28.5827 14.5202C28.2896 14.8133 28.125 15.2107 28.125 15.6251C28.1183 20.7451 29.2407 25.8036 31.4124 30.4402C33.584 35.0769 36.7515 39.1775 40.6891 42.4501L47.436 48.0751C47.7171 48.3095 48.0715 48.4378 48.4375 48.4376ZM31.2875 17.1876C37.4675 17.0407 43.4536 15.001 48.4375 11.3438C53.4217 15.0006 59.4076 17.0402 65.5875 17.1876C65.378 21.5826 64.2556 25.8859 62.2918 29.8234C60.328 33.7609 57.5659 37.2464 54.1813 40.0579L48.4375 44.8438L42.6891 40.0548C39.3056 37.2432 36.5446 33.7581 34.5816 29.8212C32.6187 25.8842 31.4968 21.5818 31.2875 17.1876Z" fill="#30373F"/>
<path id="Vector_2" d="M49.4532 40.2484L54.3423 36.0594C58.5201 32.4669 61.3795 27.5828 62.4673 22.1813C62.5125 21.9548 62.507 21.7211 62.4512 21.497C62.3953 21.2729 62.2904 21.064 62.1442 20.8853C61.9979 20.7066 61.8138 20.5625 61.6052 20.4635C61.3965 20.3644 61.1685 20.3129 60.9376 20.3125C57.22 20.3048 53.6038 19.0994 50.6251 16.875L49.3751 15.9375C49.1046 15.7347 48.7757 15.625 48.4376 15.625C48.0995 15.625 47.7705 15.7347 47.5001 15.9375L46.2501 16.875C43.2711 19.0989 39.6551 20.3042 35.9376 20.3125C35.7058 20.3125 35.477 20.3639 35.2676 20.4633C35.0583 20.5626 34.8736 20.7072 34.727 20.8867C34.5805 21.0661 34.4757 21.276 34.4202 21.501C34.3647 21.7259 34.36 21.9605 34.4063 22.1875C35.4941 27.5891 38.3535 32.4731 42.5313 36.0656L47.4204 40.2547C47.7034 40.4968 48.0636 40.6298 48.436 40.6298C48.8084 40.6298 49.1686 40.4968 49.4516 40.2547L49.4532 40.2484ZM44.5641 33.6859C41.3894 30.9551 39.076 27.3611 37.9048 23.3406C41.6086 22.9721 45.142 21.6011 48.1251 19.375L48.4376 19.1406L48.7501 19.375C51.7329 21.6016 55.2664 22.9726 58.9704 23.3406C57.7992 27.3611 55.4857 30.9551 52.311 33.6859L48.4376 37.0047L44.5641 33.6859Z" fill="#30373F"/>
<path id="Vector_3" d="M96.875 54.6875H82.8125V3.125C82.8125 2.7106 82.6479 2.31317 82.3549 2.02015C82.0618 1.72712 81.6644 1.5625 81.25 1.5625H15.625C15.2106 1.5625 14.8132 1.72712 14.5201 2.02015C14.2271 2.31317 14.0625 2.7106 14.0625 3.125V42.1875H3.125C2.7106 42.1875 2.31317 42.3521 2.02015 42.6451C1.72712 42.9382 1.5625 43.3356 1.5625 43.75V90.625C1.56498 92.6962 2.38888 94.6819 3.85347 96.1465C5.31806 97.6111 7.30376 98.435 9.375 98.4375H75C77.0712 98.435 79.0569 97.6111 80.5215 96.1465C81.9861 94.6819 82.81 92.6962 82.8125 90.625V85.9375H96.875C97.2894 85.9375 97.6868 85.7729 97.9799 85.4799C98.2729 85.1868 98.4375 84.7894 98.4375 84.375V56.25C98.4375 55.8356 98.2729 55.4382 97.9799 55.1451C97.6868 54.8521 97.2894 54.6875 96.875 54.6875ZM4.6875 90.625V45.3125H14.0625V90.625C14.0625 91.8682 13.5686 93.0605 12.6896 93.9396C11.8105 94.8186 10.6182 95.3125 9.375 95.3125C8.1318 95.3125 6.93951 94.8186 6.06044 93.9396C5.18136 93.0605 4.6875 91.8682 4.6875 90.625ZM79.6875 90.625C79.6875 91.8682 79.1936 93.0605 78.3146 93.9396C77.4355 94.8186 76.2432 95.3125 75 95.3125H15.5844C16.6184 93.9681 17.1818 92.321 17.1875 90.625V4.6875H79.6875V54.6875H78.125C77.7106 54.6875 77.3132 54.8521 77.0201 55.1451C76.7271 55.4382 76.5625 55.8356 76.5625 56.25V57.8125H72.5219L67.1875 52.4781V43.75C67.1875 43.3356 67.0229 42.9382 66.7299 42.6451C66.4368 42.3521 66.0394 42.1875 65.625 42.1875H64.0625C62.4049 42.1875 60.8152 42.846 59.6431 44.0181C58.471 45.1902 57.8125 46.7799 57.8125 48.4375V57.8125H46.875C45.6318 57.8125 44.4395 58.3064 43.5604 59.1854C42.6814 60.0645 42.1875 61.2568 42.1875 62.5V81.25C42.1875 82.4932 42.6814 83.6855 43.5604 84.5646C44.4395 85.4436 45.6318 85.9375 46.875 85.9375H65.625C65.8668 85.9402 66.1059 85.8867 66.3234 85.7812L72.2438 82.8125H76.5625V84.375C76.5625 84.7894 76.7271 85.1868 77.0201 85.4799C77.3132 85.7729 77.7106 85.9375 78.125 85.9375H79.6875V90.625ZM76.5625 79.6875H71.875C71.6332 79.6848 71.3941 79.7383 71.1766 79.8438L65.2562 82.8125H46.875C46.4606 82.8125 46.0632 82.6479 45.7701 82.3549C45.4771 82.0618 45.3125 81.6644 45.3125 81.25V79.6875H57.8125V76.5625H45.3125V73.4375H57.8125V70.3125H45.3125V67.1875H57.8125V64.0625H45.3125V62.5C45.3125 62.0856 45.4771 61.6882 45.7701 61.3951C46.0632 61.1021 46.4606 60.9375 46.875 60.9375H59.375C59.7894 60.9375 60.1868 60.7729 60.4799 60.4799C60.7729 60.1868 60.9375 59.7894 60.9375 59.375V48.4375C60.9375 47.6087 61.2667 46.8138 61.8528 46.2278C62.4388 45.6417 63.2337 45.3125 64.0625 45.3125V53.125C64.0626 53.5394 64.2273 53.9367 64.5203 54.2297L70.7703 60.4797C71.0633 60.7727 71.4606 60.9374 71.875 60.9375H76.5625V79.6875ZM95.3125 82.8125H79.6875V57.8125H95.3125V82.8125Z" fill="#30373F"/>
<path id="Vector_4" d="M35.0937 48.6343C34.8742 48.5102 34.6272 48.4425 34.375 48.4375H21.875C21.4606 48.4375 21.0632 48.6021 20.7701 48.8951C20.4771 49.1881 20.3125 49.5856 20.3125 50V62.5C20.3125 62.9144 20.4771 63.3118 20.7701 63.6048C21.0632 63.8978 21.4606 64.0625 21.875 64.0625H34.375C34.7894 64.0625 35.1868 63.8978 35.4799 63.6048C35.7729 63.3118 35.9375 62.9144 35.9375 62.5V52.2093L40.1672 47.9796L37.9578 45.7703L35.0937 48.6343ZM32.8125 60.9375H23.4375V51.5625H32.1656L28.125 55.6031L26.1047 53.5828L23.8953 55.7921L27.0203 58.9171C27.3133 59.2101 27.7107 59.3746 28.125 59.3746C28.5393 59.3746 28.9367 59.2101 29.2297 58.9171L32.8125 55.3343V60.9375ZM37.9578 64.5203L35.0937 67.3843C34.8743 67.26 34.6272 67.1923 34.375 67.1875H21.875C21.4606 67.1875 21.0632 67.3521 20.7701 67.6451C20.4771 67.9381 20.3125 68.3356 20.3125 68.75V81.25C20.3125 81.6644 20.4771 82.0618 20.7701 82.3548C21.0632 82.6478 21.4606 82.8125 21.875 82.8125H34.375C34.7894 82.8125 35.1868 82.6478 35.4799 82.3548C35.7729 82.0618 35.9375 81.6644 35.9375 81.25V70.9593L40.1672 66.7296L37.9578 64.5203ZM32.8125 79.6875H23.4375V70.3125H32.1656L28.125 74.3531L26.1047 72.3328L23.8953 74.5421L27.0203 77.6671C27.3133 77.9601 27.7107 78.1246 28.125 78.1246C28.5393 78.1246 28.9367 77.9601 29.2297 77.6671L32.8125 74.0843V79.6875Z" fill="#30373F"/>
</g>
</g>
</svg>
